<?xml version="1.0" standalone="no"?>
<!DOCTYPE svg PUBLIC "-//W3C//DTD SVG 20010904//EN" "http://www.w3.org/TR/2001/REC-SVG-20010904/DTD/svg10.dtd">
<svg xmlns="http://www.w3.org/2000/svg" version="1.0" width="192.000000pt" height="192.000000pt" viewBox="0 0 192.000000 192.000000" preserveAspectRatio="xMidYMid meet">
<metadata>
Created by potrace 1.16, written by Peter Selinger 2001-2019
<meta name="Producer" content="Online-Convert"/></metadata>
<g transform="translate(0.000000,192.000000) scale(0.100000,-0.100000)" fill="#000000" stroke="none">
<path d="M770 1900 c-110 -24 -156 -41 -257 -94 -103 -55 -149 -91 -241 -186 -122 -125 -210 -289 -248 -463 -21 -95 -21 -299 0 -394 39 -179 130 -347 260 -477 91 -92 157 -138 278 -196 138 -66 219 -83 393 -83 155 -1 206 8 338 55 59 21 89 44 43 32 -22 -5 -25 -3 -21 15 2 12 7 26 11 33 4 7 3 8 -4 4 -16 -10 -7 90 9 110 7 9 30 24 52 35 21 11 37 22 35 24 -2 2 -47 -17 -99 -44 -169 -84 -366 -108 -544 -66 -131 31 -263 97 -345 172 -14 13 -28 23 -31 23 -6 0 -96 116 -136 175 -31 46 -73 167 -88 251 -26 149 0 334 64 463 29 60 145 221 159 221 4 0 27 18 52 39 82 73 240 144 365 166 119 21 289 8 400 -29 73 -25 177 -81 233 -125 55 -44 67 -46 29 -5 -18 19 -23 34 -20 62 2 20 4 60 4 89 l1 52 26 -16 c15 -9 35 -23 45 -31 9 -9 20 -13 23 -10 6 7 -111 84 -184 121 -169 87 -414 118 -602 77z"/>
<path d="M715 1386 c-50 -30 -67 -53 -145 -198 -78 -146 -92 -160 -171 -169 -63 -7 -79 -18 -79 -55 0 -41 30 -54 121 -54 131 1 175 27 254 157 40 66 68 93 81 81 4 -4 10 -69 15 -145 5 -76 14 -178 19 -227 19 -159 79 -243 167 -232 21 2 44 5 51 5 9 1 11 8 7 21 -4 11 2 30 13 47 11 15 39 59 63 98 24 38 65 94 90 125 25 30 61 80 81 110 19 30 56 74 81 97 l46 42 -41 41 c-35 34 -47 40 -84 40 -79 0 -118 -52 -219 -292 -15 -37 -36 -75 -46 -84 -17 -15 -18 -14 -28 23 -6 21 -13 90 -16 153 -8 152 -22 265 -41 321 -33 104 -134 148 -219 95z"/>
</g>
</svg>
