<?xml version="1.0" encoding="UTF-8"?>
<!-- Generator: https://ezgif.com/png-to-svg -->
<svg version="1.1" xmlns="http://www.w3.org/2000/svg" width="192" height="192">
<path d="M0,0 L2,0 L2,1 L3,1 L3,0 L19,0 L19,1 L20,1 L20,0 L21,0 L21,1 L28,1 L28,2 L32,2 L32,3 L36,3 L36,4 L40,4 L40,5 L42,5 L42,6 L46,6 L46,7 L48,7 L48,8 L50,8 L50,9 L52,9 L52,10 L54,10 L54,11 L56,11 L56,12 L58,12 L58,13 L60,13 L60,14 L61,14 L61,15 L63,15 L63,16 L64,16 L64,17 L66,17 L66,18 L67,18 L67,19 L68,19 L68,20 L70,20 L70,21 L71,21 L71,22 L72,22 L72,23 L73,23 L73,24 L74,24 L74,25 L75,25 L75,26 L76,26 L76,27 L77,27 L77,28 L78,28 L78,29 L79,29 L79,30 L80,30 L80,31 L81,31 L81,32 L82,32 L82,33 L83,33 L83,34 L84,34 L84,35 L85,35 L85,37 L86,37 L86,38 L87,38 L87,39 L88,39 L88,40 L89,40 L89,42 L90,42 L90,43 L91,43 L91,45 L92,45 L92,47 L93,47 L93,48 L94,48 L94,50 L95,50 L95,52 L96,52 L96,54 L97,54 L97,56 L98,56 L98,58 L99,58 L99,61 L100,61 L100,63 L101,63 L101,66 L102,66 L102,69 L103,69 L103,73 L104,73 L104,78 L105,78 L105,84 L106,84 L106,108 L105,108 L105,114 L104,114 L104,119 L103,119 L103,123 L102,123 L102,126 L101,126 L101,129 L100,129 L100,131 L99,131 L99,134 L98,134 L98,136 L97,136 L97,138 L96,138 L96,140 L95,140 L95,142 L94,142 L94,144 L93,144 L93,145 L92,145 L92,147 L91,147 L91,149 L90,149 L90,150 L89,150 L89,152 L88,152 L88,153 L87,153 L87,154 L86,154 L86,155 L85,155 L85,157 L84,157 L84,158 L83,158 L83,159 L82,159 L82,160 L81,160 L81,161 L80,161 L80,162 L79,162 L79,163 L78,163 L78,164 L77,164 L77,165 L76,165 L76,166 L75,166 L75,167 L74,167 L74,168 L73,168 L73,169 L72,169 L72,170 L71,170 L71,171 L69,171 L69,172 L68,172 L68,173 L67,173 L67,174 L65,174 L65,175 L64,175 L64,176 L62,176 L62,177 L61,177 L61,178 L59,178 L59,179 L58,179 L58,180 L56,180 L56,181 L54,181 L54,182 L52,182 L52,183 L50,183 L50,184 L48,184 L48,185 L45,185 L45,186 L42,186 L42,187 L40,187 L40,188 L36,188 L36,189 L32,189 L32,190 L28,190 L28,191 L21,191 L21,192 L20,192 L20,191 L19,191 L19,192 L3,192 L3,191 L2,191 L2,192 L0,192 L0,191 L-6,191 L-6,190 L-11,190 L-11,189 L-15,189 L-15,188 L-18,188 L-18,187 L-21,187 L-21,186 L-24,186 L-24,185 L-26,185 L-26,184 L-28,184 L-28,183 L-31,183 L-31,182 L-33,182 L-33,181 L-34,181 L-34,180 L-36,180 L-36,179 L-38,179 L-38,178 L-39,178 L-39,177 L-41,177 L-41,176 L-43,176 L-43,175 L-44,175 L-44,174 L-45,174 L-45,173 L-47,173 L-47,172 L-48,172 L-48,171 L-49,171 L-49,170 L-51,170 L-51,168 L-53,168 L-53,167 L-54,167 L-54,166 L-55,166 L-55,165 L-56,165 L-56,164 L-57,164 L-57,163 L-58,163 L-58,162 L-59,162 L-59,161 L-60,161 L-60,159 L-62,159 L-62,157 L-63,157 L-63,156 L-64,156 L-64,155 L-65,155 L-65,154 L-66,154 L-66,152 L-67,152 L-67,151 L-68,151 L-68,149 L-69,149 L-69,148 L-70,148 L-70,146 L-71,146 L-71,145 L-72,145 L-72,143 L-73,143 L-73,141 L-74,141 L-74,139 L-75,139 L-75,137 L-76,137 L-76,135 L-77,135 L-77,132 L-78,132 L-78,130 L-79,130 L-79,127 L-80,127 L-80,124 L-81,124 L-81,121 L-82,121 L-82,116 L-83,116 L-83,111 L-84,111 L-84,103 L-85,103 L-85,101 L-84,101 L-84,98 L-85,98 L-85,94 L-84,94 L-84,91 L-85,91 L-85,89 L-84,89 L-84,81 L-83,81 L-83,75 L-82,75 L-82,71 L-81,71 L-81,68 L-80,68 L-80,65 L-79,65 L-79,62 L-78,62 L-78,60 L-77,60 L-77,57 L-76,57 L-76,55 L-75,55 L-75,53 L-74,53 L-74,51 L-73,51 L-73,49 L-72,49 L-72,47 L-71,47 L-71,46 L-70,46 L-70,44 L-69,44 L-69,43 L-68,43 L-68,41 L-67,41 L-67,40 L-66,40 L-66,38 L-65,38 L-65,37 L-64,37 L-64,36 L-63,36 L-63,35 L-62,35 L-62,33 L-60,33 L-60,31 L-59,31 L-59,30 L-58,30 L-58,29 L-57,29 L-57,28 L-56,28 L-56,27 L-55,27 L-55,26 L-54,26 L-54,25 L-53,25 L-53,24 L-51,24 L-51,22 L-49,22 L-49,21 L-48,21 L-48,20 L-47,20 L-47,19 L-45,19 L-45,18 L-44,18 L-44,17 L-43,17 L-43,16 L-41,16 L-41,15 L-39,15 L-39,14 L-38,14 L-38,13 L-36,13 L-36,12 L-34,12 L-34,11 L-33,11 L-33,10 L-31,10 L-31,9 L-28,9 L-28,8 L-26,8 L-26,7 L-24,7 L-24,6 L-21,6 L-21,5 L-18,5 L-18,4 L-15,4 L-15,3 L-10,3 L-10,2 L-6,2 L-6,1 L0,1 Z M4,19 L4,20 L-3,20 L-3,21 L-9,21 L-9,22 L-12,22 L-12,23 L-15,23 L-15,24 L-19,24 L-19,25 L-21,25 L-21,26 L-23,26 L-23,27 L-25,27 L-25,28 L-27,28 L-27,29 L-29,29 L-29,30 L-31,30 L-31,31 L-32,31 L-32,32 L-34,32 L-34,33 L-36,33 L-36,34 L-37,34 L-37,35 L-38,35 L-38,36 L-40,36 L-40,38 L-42,38 L-42,39 L-43,39 L-43,40 L-44,40 L-44,41 L-45,41 L-45,42 L-46,42 L-46,43 L-47,43 L-47,44 L-49,44 L-49,46 L-50,46 L-50,47 L-51,47 L-51,48 L-52,48 L-52,50 L-53,50 L-53,51 L-54,51 L-54,52 L-55,52 L-55,54 L-56,54 L-56,55 L-57,55 L-57,57 L-58,57 L-58,58 L-59,58 L-59,60 L-60,60 L-60,62 L-61,62 L-61,64 L-62,64 L-62,66 L-63,66 L-63,68 L-64,68 L-64,71 L-65,71 L-65,74 L-66,74 L-66,78 L-67,78 L-67,83 L-68,83 L-68,90 L-69,90 L-69,92 L-68,92 L-68,94 L-69,94 L-69,99 L-68,99 L-68,101 L-69,101 L-69,103 L-68,103 L-68,110 L-67,110 L-67,115 L-66,115 L-66,119 L-65,119 L-65,121 L-64,121 L-64,124 L-63,124 L-63,127 L-62,127 L-62,129 L-61,129 L-61,131 L-60,131 L-60,133 L-59,133 L-59,135 L-58,135 L-58,136 L-57,136 L-57,138 L-56,138 L-56,139 L-55,139 L-55,141 L-54,141 L-54,142 L-53,142 L-53,143 L-52,143 L-52,144 L-51,144 L-51,146 L-50,146 L-50,147 L-49,147 L-49,148 L-48,148 L-48,149 L-47,149 L-47,150 L-46,150 L-46,151 L-45,151 L-45,152 L-44,152 L-44,153 L-43,153 L-43,154 L-42,154 L-42,155 L-40,155 L-40,157 L-38,157 L-38,158 L-37,158 L-37,159 L-35,159 L-35,160 L-34,160 L-34,161 L-32,161 L-32,162 L-31,162 L-31,163 L-29,163 L-29,164 L-27,164 L-27,165 L-25,165 L-25,166 L-23,166 L-23,167 L-21,167 L-21,168 L-18,168 L-18,169 L-15,169 L-15,170 L-12,170 L-12,171 L-8,171 L-8,172 L-3,172 L-3,173 L4,173 L4,174 L5,174 L5,173 L8,173 L8,174 L14,174 L14,173 L16,173 L16,174 L17,174 L17,173 L24,173 L24,172 L29,172 L29,171 L33,171 L33,170 L36,170 L36,169 L39,169 L39,168 L42,168 L42,167 L44,167 L44,166 L46,166 L46,165 L48,165 L48,164 L50,164 L50,163 L52,163 L52,162 L53,162 L53,161 L55,161 L55,160 L57,160 L57,159 L58,159 L58,158 L60,158 L60,157 L61,157 L61,156 L62,156 L62,155 L63,155 L63,154 L64,154 L64,153 L66,153 L66,151 L68,151 L68,150 L69,150 L69,148 L70,148 L70,147 L71,147 L71,146 L72,146 L72,145 L73,145 L73,144 L74,144 L74,143 L75,143 L75,141 L76,141 L76,140 L77,140 L77,138 L78,138 L78,137 L79,137 L79,135 L80,135 L80,133 L81,133 L81,131 L82,131 L82,129 L83,129 L83,127 L84,127 L84,125 L85,125 L85,122 L86,122 L86,119 L87,119 L87,116 L88,116 L88,112 L89,112 L89,106 L90,106 L90,87 L89,87 L89,81 L88,81 L88,77 L87,77 L87,74 L86,74 L86,71 L85,71 L85,68 L84,68 L84,66 L83,66 L83,63 L82,63 L82,62 L81,62 L81,60 L80,60 L80,58 L79,58 L79,56 L78,56 L78,55 L77,55 L77,53 L76,53 L76,52 L75,52 L75,50 L74,50 L74,49 L73,49 L73,48 L72,48 L72,47 L71,47 L71,45 L70,45 L70,44 L68,44 L68,43 L67,43 L67,41 L66,41 L66,40 L64,40 L64,39 L63,39 L63,38 L62,38 L62,37 L61,37 L61,36 L59,36 L59,35 L58,35 L58,34 L57,34 L57,33 L55,33 L55,32 L54,32 L54,31 L52,31 L52,30 L50,30 L50,29 L48,29 L48,28 L46,28 L46,27 L44,27 L44,26 L42,26 L42,25 L40,25 L40,24 L36,24 L36,23 L34,23 L34,22 L30,22 L30,21 L24,21 L24,20 L18,20 L18,19 L16,19 L16,20 L13,20 L13,19 L8,19 L8,20 L6,20 L6,19 Z " fill="#B45E32" transform="translate(85,0)"/>
<path d="M0,0 L8,0 L8,1 L11,1 L11,2 L12,2 L12,3 L13,3 L13,4 L14,4 L14,5 L15,5 L15,6 L16,6 L16,7 L17,7 L17,9 L18,9 L18,12 L19,12 L19,15 L20,15 L20,21 L21,21 L21,29 L22,29 L22,43 L23,43 L23,45 L22,45 L22,46 L23,46 L23,57 L24,57 L24,61 L25,61 L25,62 L27,62 L27,61 L28,61 L28,59 L29,59 L29,58 L30,58 L30,55 L31,55 L31,53 L32,53 L32,51 L33,51 L33,48 L34,48 L34,46 L35,46 L35,44 L36,44 L36,41 L37,41 L37,39 L38,39 L38,37 L39,37 L39,35 L40,35 L40,33 L41,33 L41,31 L42,31 L42,30 L43,30 L43,29 L44,29 L44,28 L45,28 L45,27 L46,27 L46,26 L47,26 L47,25 L49,25 L49,24 L53,24 L53,23 L55,23 L55,24 L58,24 L58,25 L60,25 L60,26 L61,26 L61,27 L62,27 L62,28 L63,28 L63,29 L64,29 L64,30 L65,30 L65,31 L66,31 L66,33 L67,33 L67,34 L68,34 L68,36 L69,36 L69,39 L70,39 L70,40 L71,40 L71,42 L72,42 L72,45 L71,45 L71,47 L69,47 L69,48 L57,48 L57,49 L56,49 L56,50 L54,50 L54,51 L53,51 L53,52 L52,52 L52,53 L51,53 L51,55 L50,55 L50,56 L49,56 L49,58 L48,58 L48,60 L47,60 L47,63 L46,63 L46,65 L45,65 L45,67 L44,67 L44,69 L43,69 L43,71 L42,71 L42,73 L41,73 L41,75 L40,75 L40,76 L39,76 L39,78 L38,78 L38,80 L36,80 L36,81 L35,81 L35,83 L33,83 L33,84 L32,84 L32,85 L30,85 L30,86 L28,86 L28,87 L17,87 L17,86 L15,86 L15,85 L14,85 L14,84 L13,84 L13,83 L12,83 L12,82 L11,82 L11,80 L10,80 L10,79 L9,79 L9,76 L8,76 L8,73 L7,73 L7,69 L6,69 L6,59 L5,59 L5,47 L4,47 L4,30 L3,30 L3,26 L0,26 L0,27 L-1,27 L-1,28 L-2,28 L-2,29 L-3,29 L-3,31 L-4,31 L-4,33 L-5,33 L-5,34 L-6,34 L-6,36 L-7,36 L-7,38 L-8,38 L-8,39 L-9,39 L-9,41 L-10,41 L-10,42 L-11,42 L-11,43 L-12,43 L-12,44 L-13,44 L-13,45 L-14,45 L-14,46 L-15,46 L-15,47 L-17,47 L-17,48 L-19,48 L-19,49 L-22,49 L-22,50 L-40,50 L-40,49 L-41,49 L-41,48 L-42,48 L-42,47 L-43,47 L-43,42 L-42,42 L-42,40 L-39,40 L-39,39 L-30,39 L-30,38 L-28,38 L-28,37 L-27,37 L-27,36 L-26,36 L-26,35 L-25,35 L-25,34 L-24,34 L-24,32 L-23,32 L-23,30 L-22,30 L-22,29 L-21,29 L-21,27 L-20,27 L-20,25 L-19,25 L-19,23 L-18,23 L-18,21 L-17,21 L-17,19 L-16,19 L-16,18 L-15,18 L-15,15 L-14,15 L-14,14 L-13,14 L-13,12 L-12,12 L-12,10 L-11,10 L-11,9 L-10,9 L-10,8 L-9,8 L-9,6 L-8,6 L-8,5 L-7,5 L-7,4 L-5,4 L-5,3 L-4,3 L-4,2 L-2,2 L-2,1 L0,1 Z " fill="#500BD8" transform="translate(75,51)"/>
<path d="M0,0 L2,0 L2,1 L5,1 L5,2 L7,2 L7,3 L8,3 L8,4 L9,4 L9,5 L10,5 L10,6 L11,6 L11,7 L12,7 L12,8 L13,8 L13,10 L14,10 L14,11 L15,11 L15,13 L16,13 L16,16 L17,16 L17,17 L18,17 L18,19 L19,19 L19,22 L18,22 L18,24 L16,24 L16,25 L4,25 L4,26 L3,26 L3,27 L1,27 L1,28 L0,28 L0,29 L-1,29 L-1,30 L-2,30 L-2,32 L-3,32 L-3,33 L-4,33 L-4,35 L-5,35 L-5,37 L-6,37 L-6,40 L-7,40 L-7,42 L-8,42 L-8,44 L-9,44 L-9,46 L-10,46 L-10,48 L-11,48 L-11,50 L-12,50 L-12,52 L-13,52 L-13,53 L-14,53 L-14,55 L-15,55 L-15,57 L-17,57 L-17,58 L-18,58 L-18,60 L-20,60 L-20,61 L-21,61 L-21,62 L-23,62 L-23,63 L-25,63 L-25,64 L-36,64 L-36,63 L-38,63 L-38,62 L-39,62 L-39,61 L-40,61 L-40,60 L-41,60 L-41,59 L-42,59 L-42,57 L-43,57 L-43,56 L-44,56 L-44,53 L-45,53 L-45,50 L-46,50 L-46,46 L-47,46 L-47,44 L-45,44 L-45,47 L-43,47 L-43,46 L-42,46 L-42,43 L-41,43 L-41,42 L-40,42 L-40,40 L-38,40 L-38,39 L-37,39 L-37,38 L-36,38 L-36,37 L-35,37 L-35,36 L-34,36 L-34,35 L-32,35 L-32,34 L-31,34 L-31,31 L-30,31 L-30,34 L-29,34 L-29,38 L-28,38 L-28,39 L-26,39 L-26,38 L-25,38 L-25,36 L-24,36 L-24,35 L-23,35 L-23,32 L-22,32 L-22,30 L-21,30 L-21,28 L-20,28 L-20,25 L-19,25 L-19,23 L-18,23 L-18,21 L-17,21 L-17,18 L-16,18 L-16,16 L-15,16 L-15,14 L-14,14 L-14,12 L-13,12 L-13,10 L-12,10 L-12,8 L-11,8 L-11,7 L-10,7 L-10,6 L-9,6 L-9,5 L-8,5 L-8,4 L-7,4 L-7,3 L-6,3 L-6,2 L-4,2 L-4,1 L0,1 Z " fill="#FA3C80" transform="translate(128,74)"/>
<path d="M0,0 L8,0 L8,1 L11,1 L11,2 L12,2 L12,3 L13,3 L13,4 L10,4 L10,3 L7,3 L7,4 L6,4 L6,5 L5,5 L5,6 L4,6 L4,7 L2,7 L2,10 L1,10 L1,11 L-1,11 L-1,13 L-2,13 L-2,16 L-3,16 L-3,17 L-4,17 L-4,19 L-5,19 L-5,20 L-6,20 L-6,21 L-7,21 L-7,22 L-8,22 L-8,24 L-9,24 L-9,26 L-10,26 L-10,27 L-11,27 L-11,28 L-12,28 L-12,29 L-13,29 L-13,31 L-14,31 L-14,34 L-15,34 L-15,35 L-16,35 L-16,39 L-15,39 L-15,43 L-16,43 L-16,44 L-14,44 L-14,41 L-13,41 L-13,40 L-11,40 L-11,39 L-12,39 L-12,38 L-11,38 L-11,37 L-10,37 L-10,36 L-9,36 L-9,41 L-10,41 L-10,42 L-11,42 L-11,43 L-12,43 L-12,44 L-13,44 L-13,45 L-14,45 L-14,46 L-15,46 L-15,47 L-17,47 L-17,48 L-19,48 L-19,49 L-22,49 L-22,50 L-40,50 L-40,49 L-41,49 L-41,48 L-42,48 L-42,47 L-43,47 L-43,42 L-42,42 L-42,40 L-39,40 L-39,39 L-30,39 L-30,38 L-28,38 L-28,37 L-27,37 L-27,36 L-26,36 L-26,35 L-25,35 L-25,34 L-24,34 L-24,32 L-23,32 L-23,30 L-22,30 L-22,29 L-21,29 L-21,27 L-20,27 L-20,25 L-19,25 L-19,23 L-18,23 L-18,21 L-17,21 L-17,19 L-16,19 L-16,18 L-15,18 L-15,15 L-14,15 L-14,14 L-13,14 L-13,12 L-12,12 L-12,10 L-11,10 L-11,9 L-10,9 L-10,8 L-9,8 L-9,6 L-8,6 L-8,5 L-7,5 L-7,4 L-5,4 L-5,3 L-4,3 L-4,2 L-2,2 L-2,1 L0,1 Z M-17,39 L-17,40 L-16,40 L-16,39 Z " fill="#390DE2" transform="translate(75,51)"/>
<path d="M0,0 L2,0 L2,1 L3,1 L3,6 L4,6 L4,14 L5,14 L5,16 L4,16 L4,17 L5,17 L5,25 L4,25 L4,28 L3,28 L3,29 L1,29 L1,30 L0,30 L0,31 L-1,31 L-1,32 L-2,32 L-2,33 L-3,33 L-3,34 L-5,34 L-5,36 L-6,36 L-6,37 L-7,37 L-7,40 L-8,40 L-8,41 L-10,41 L-10,38 L-12,38 L-12,30 L-13,30 L-13,18 L-14,18 L-14,17 L-12,17 L-12,14 L-11,14 L-11,10 L-9,10 L-9,8 L-8,8 L-8,7 L-7,7 L-7,6 L-6,6 L-6,5 L-5,5 L-5,4 L-4,4 L-4,3 L-3,3 L-3,2 L-1,2 L-1,1 L0,1 Z " fill="#CD1AA2" transform="translate(93,80)"/>
<path d="M0,0 L1,0 L1,1 L2,1 L2,3 L3,3 L3,4 L4,4 L4,6 L5,6 L5,9 L6,9 L6,10 L7,10 L7,12 L8,12 L8,15 L7,15 L7,17 L5,17 L5,18 L-7,18 L-7,19 L-8,19 L-8,20 L-10,20 L-10,21 L-11,21 L-11,22 L-12,22 L-12,23 L-13,23 L-13,25 L-14,25 L-14,26 L-15,26 L-15,28 L-16,28 L-16,30 L-17,30 L-17,33 L-18,33 L-18,35 L-19,35 L-19,37 L-20,37 L-20,39 L-21,39 L-21,41 L-22,41 L-22,43 L-23,43 L-23,45 L-24,45 L-24,46 L-25,46 L-25,48 L-26,48 L-26,50 L-28,50 L-28,51 L-29,51 L-29,53 L-31,53 L-31,54 L-32,54 L-32,55 L-34,55 L-34,56 L-36,56 L-36,57 L-39,57 L-39,56 L-40,56 L-40,54 L-39,54 L-39,52 L-38,52 L-38,51 L-37,51 L-37,50 L-35,50 L-35,47 L-34,47 L-34,46 L-33,46 L-33,44 L-32,44 L-32,43 L-31,43 L-31,42 L-30,42 L-30,40 L-29,40 L-29,39 L-28,39 L-28,38 L-27,38 L-27,37 L-26,37 L-26,36 L-25,36 L-25,34 L-24,34 L-24,33 L-21,33 L-21,30 L-20,30 L-20,28 L-19,28 L-19,27 L-18,27 L-18,26 L-19,26 L-19,24 L-17,24 L-17,23 L-14,23 L-14,20 L-13,20 L-13,19 L-12,19 L-12,15 L-11,15 L-11,14 L-10,14 L-10,12 L-9,12 L-9,10 L-7,10 L-7,9 L-6,9 L-6,8 L-5,8 L-5,7 L-4,7 L-4,6 L-3,6 L-3,5 L-2,5 L-2,3 L-1,3 L-1,2 L0,2 Z " fill="#FC6C66" transform="translate(139,81)"/>
<path d="M0,0 L2,0 L2,5 L4,5 L4,8 L5,8 L5,16 L6,16 L6,22 L5,22 L5,17 L4,17 L4,16 L2,16 L2,17 L1,17 L1,18 L-1,18 L-1,19 L-2,19 L-2,20 L-3,20 L-3,21 L-4,21 L-4,22 L-5,22 L-5,23 L-6,23 L-6,24 L-7,24 L-7,26 L-9,26 L-9,30 L-10,30 L-10,33 L-12,33 L-12,17 L-13,17 L-13,16 L-12,16 L-12,12 L-11,12 L-11,10 L-9,10 L-9,8 L-8,8 L-8,7 L-7,7 L-7,5 L-6,5 L-6,4 L-5,4 L-5,3 L-4,3 L-4,1 L0,1 Z " fill="#850CC1" transform="translate(91,64)"/>
<path d="M0,0 L2,0 L2,1 L1,1 L1,2 L-1,2 L-1,3 L-2,3 L-2,2 L-3,2 L-3,3 L-8,3 L-8,4 L-12,4 L-12,5 L-15,5 L-15,6 L-17,6 L-17,7 L-18,7 L-18,6 L-19,6 L-19,7 L-21,7 L-21,8 L-25,8 L-25,9 L-27,9 L-27,10 L-28,10 L-28,11 L-32,11 L-32,13 L-34,13 L-34,14 L-36,14 L-36,15 L-37,15 L-37,16 L-38,16 L-38,17 L-41,17 L-41,18 L-42,18 L-42,19 L-43,19 L-43,20 L-44,20 L-44,21 L-46,21 L-46,22 L-47,22 L-47,23 L-48,23 L-48,24 L-50,24 L-50,25 L-51,25 L-51,26 L-52,26 L-52,27 L-54,27 L-54,28 L-55,28 L-55,29 L-56,29 L-56,32 L-57,32 L-57,33 L-58,33 L-58,34 L-59,34 L-59,35 L-60,35 L-60,36 L-61,36 L-61,37 L-62,37 L-62,38 L-63,38 L-63,40 L-64,40 L-64,42 L-65,42 L-65,43 L-66,43 L-66,44 L-67,44 L-67,45 L-68,45 L-68,46 L-69,46 L-69,47 L-70,47 L-70,49 L-71,49 L-71,50 L-70,50 L-70,51 L-71,51 L-71,52 L-72,52 L-72,53 L-73,53 L-73,54 L-74,54 L-74,57 L-75,57 L-75,59 L-76,59 L-76,62 L-77,62 L-77,64 L-78,64 L-78,67 L-79,67 L-79,71 L-80,71 L-80,76 L-81,76 L-81,79 L-82,79 L-82,83 L-81,83 L-81,85 L-82,85 L-82,86 L-81,86 L-81,87 L-82,87 L-82,88 L-83,88 L-83,93 L-84,93 L-84,91 L-85,91 L-85,89 L-84,89 L-84,81 L-83,81 L-83,75 L-82,75 L-82,71 L-81,71 L-81,68 L-80,68 L-80,65 L-79,65 L-79,62 L-78,62 L-78,60 L-77,60 L-77,57 L-76,57 L-76,55 L-75,55 L-75,53 L-74,53 L-74,51 L-73,51 L-73,49 L-72,49 L-72,47 L-71,47 L-71,46 L-70,46 L-70,44 L-69,44 L-69,43 L-68,43 L-68,41 L-67,41 L-67,40 L-66,40 L-66,38 L-65,38 L-65,37 L-64,37 L-64,36 L-63,36 L-63,35 L-62,35 L-62,33 L-60,33 L-60,31 L-59,31 L-59,30 L-58,30 L-58,29 L-57,29 L-57,28 L-56,28 L-56,27 L-55,27 L-55,26 L-54,26 L-54,25 L-53,25 L-53,24 L-51,24 L-51,22 L-49,22 L-49,21 L-48,21 L-48,20 L-47,20 L-47,19 L-45,19 L-45,18 L-44,18 L-44,17 L-43,17 L-43,16 L-41,16 L-41,15 L-39,15 L-39,14 L-38,14 L-38,13 L-36,13 L-36,12 L-34,12 L-34,11 L-33,11 L-33,10 L-31,10 L-31,9 L-28,9 L-28,8 L-26,8 L-26,7 L-24,7 L-24,6 L-21,6 L-21,5 L-18,5 L-18,4 L-15,4 L-15,3 L-10,3 L-10,2 L-6,2 L-6,1 L0,1 Z " fill="#814558" transform="translate(85,0)"/>
<path d="M0,0 L2,0 L2,1 L3,1 L3,6 L4,6 L4,8 L2,8 L2,10 L1,10 L1,11 L0,11 L0,14 L-1,14 L-1,15 L-2,15 L-2,17 L-4,17 L-4,18 L-6,18 L-6,19 L-7,19 L-7,21 L-8,21 L-8,23 L-12,23 L-12,24 L-13,24 L-13,18 L-14,18 L-14,17 L-12,17 L-12,14 L-11,14 L-11,10 L-9,10 L-9,8 L-8,8 L-8,7 L-7,7 L-7,6 L-6,6 L-6,5 L-5,5 L-5,4 L-4,4 L-4,3 L-3,3 L-3,2 L-1,2 L-1,1 L0,1 Z " fill="#B012B4" transform="translate(93,80)"/>
<path d="M0,0 L8,0 L8,1 L5,1 L5,2 L1,2 L1,3 L-1,3 L-1,4 L-3,4 L-3,5 L-5,5 L-5,6 L-7,6 L-7,7 L-9,7 L-9,8 L-11,8 L-11,9 L-12,9 L-12,10 L-14,10 L-14,11 L-16,11 L-16,12 L-17,12 L-17,13 L-18,13 L-18,14 L-20,14 L-20,16 L-22,16 L-22,17 L-23,17 L-23,18 L-24,18 L-24,19 L-25,19 L-25,20 L-26,20 L-26,21 L-27,21 L-27,22 L-29,22 L-29,24 L-30,24 L-30,25 L-31,25 L-31,26 L-32,26 L-32,28 L-33,28 L-33,29 L-34,29 L-34,30 L-35,30 L-35,32 L-36,32 L-36,33 L-37,33 L-37,35 L-38,35 L-38,36 L-39,36 L-39,38 L-40,38 L-40,40 L-41,40 L-41,42 L-42,42 L-42,44 L-43,44 L-43,46 L-44,46 L-44,49 L-45,49 L-45,52 L-46,52 L-46,56 L-47,56 L-47,61 L-48,61 L-48,68 L-49,68 L-49,70 L-48,70 L-48,72 L-49,72 L-49,73 L-50,73 L-50,71 L-51,71 L-51,69 L-50,69 L-50,61 L-49,61 L-49,57 L-48,57 L-48,52 L-47,52 L-47,50 L-46,50 L-46,47 L-45,47 L-45,46 L-46,46 L-46,45 L-44,45 L-44,43 L-43,43 L-43,39 L-42,39 L-42,38 L-41,38 L-41,36 L-40,36 L-40,35 L-39,35 L-39,32 L-37,32 L-37,30 L-36,30 L-36,29 L-35,29 L-35,28 L-34,28 L-34,26 L-33,26 L-33,25 L-32,25 L-32,23 L-31,23 L-31,22 L-30,22 L-30,19 L-27,19 L-27,17 L-26,17 L-26,18 L-25,18 L-25,16 L-24,16 L-24,15 L-23,15 L-23,14 L-21,14 L-21,13 L-20,13 L-20,12 L-18,12 L-18,11 L-17,11 L-17,10 L-15,10 L-15,9 L-14,9 L-14,8 L-12,8 L-12,7 L-11,7 L-11,6 L-9,6 L-9,5 L-7,5 L-7,4 L-5,4 L-5,3 L-2,3 L-2,2 L0,2 Z " fill="#804858" transform="translate(65,22)"/>
<path d="M0,0 L1,0 L1,6 L3,6 L3,7 L2,7 L2,8 L3,8 L3,10 L2,10 L2,14 L3,14 L3,18 L4,18 L4,23 L5,23 L5,26 L6,26 L6,29 L7,29 L7,31 L8,31 L8,32 L9,32 L9,33 L8,33 L8,34 L9,34 L9,36 L11,36 L11,37 L10,37 L10,38 L11,38 L11,40 L12,40 L12,42 L14,42 L14,43 L13,43 L13,44 L14,44 L14,46 L15,46 L15,48 L16,48 L16,49 L17,49 L17,50 L18,50 L18,51 L19,51 L19,52 L20,52 L20,55 L22,55 L22,57 L24,57 L24,59 L25,59 L25,60 L26,60 L26,63 L25,63 L25,62 L24,62 L24,60 L22,60 L22,58 L21,58 L21,57 L20,57 L20,56 L19,56 L19,55 L18,55 L18,53 L17,53 L17,52 L16,52 L16,50 L15,50 L15,49 L14,49 L14,47 L13,47 L13,46 L12,46 L12,44 L11,44 L11,42 L10,42 L10,40 L9,40 L9,38 L8,38 L8,36 L7,36 L7,33 L6,33 L6,31 L5,31 L5,28 L4,28 L4,25 L3,25 L3,22 L2,22 L2,17 L1,17 L1,12 L0,12 L0,4 L-1,4 L-1,2 L0,2 Z " fill="#7C415A" transform="translate(1,99)"/>
<path d="M0,0 L1,0 L1,1 L2,1 L2,3 L1,3 L1,5 L2,5 L2,12 L3,12 L3,17 L4,17 L4,21 L5,21 L5,23 L6,23 L6,26 L7,26 L7,29 L8,29 L8,31 L9,31 L9,33 L10,33 L10,35 L11,35 L11,37 L12,37 L12,38 L13,38 L13,40 L14,40 L14,41 L15,41 L15,43 L16,43 L16,44 L17,44 L17,45 L18,45 L18,46 L19,46 L19,48 L20,48 L20,49 L21,49 L21,50 L18,50 L18,48 L17,48 L17,46 L16,46 L16,45 L15,45 L15,44 L14,44 L14,43 L13,43 L13,41 L12,41 L12,40 L11,40 L11,38 L10,38 L10,37 L9,37 L9,34 L7,34 L7,30 L6,30 L6,28 L5,28 L5,26 L4,26 L4,23 L3,23 L3,20 L2,20 L2,16 L1,16 L1,12 L0,12 L0,4 L-1,4 L-1,2 L0,2 Z " fill="#7C4859" transform="translate(15,98)"/>
<path d="M0,0 L3,0 L3,1 L4,1 L4,2 L5,2 L5,3 L7,3 L7,5 L9,5 L9,7 L11,7 L11,8 L12,8 L12,9 L14,9 L14,10 L16,10 L16,11 L17,11 L17,12 L19,12 L19,13 L21,13 L21,14 L24,14 L24,15 L25,15 L25,16 L27,16 L27,17 L28,17 L28,18 L31,18 L31,19 L34,19 L34,20 L36,20 L36,21 L40,21 L40,22 L43,22 L43,23 L44,23 L44,24 L40,24 L40,23 L37,23 L37,22 L34,22 L34,21 L31,21 L31,20 L29,20 L29,19 L27,19 L27,18 L24,18 L24,17 L22,17 L22,16 L21,16 L21,15 L19,15 L19,14 L17,14 L17,13 L16,13 L16,12 L14,12 L14,11 L12,11 L12,10 L11,10 L11,9 L10,9 L10,8 L8,8 L8,7 L7,7 L7,6 L6,6 L6,5 L4,5 L4,3 L2,3 L2,2 L1,2 L1,1 L0,1 Z " fill="#8B5150" transform="translate(30,165)"/>
<path d="M0,0 L4,0 L4,1 L3,1 L3,2 L0,2 L0,3 L-3,3 L-3,4 L-4,4 L-4,3 L-12,3 L-12,2 L-5,2 L-5,1 L0,1 Z " fill="#936143" transform="translate(114,171)"/>
<path d="M0,0 L1,0 L1,3 L6,3 L6,4 L7,4 L7,5 L-2,5 L-2,2 L-1,2 L-1,1 L0,1 Z " fill="#FD6B3D" transform="translate(136,94)"/>
<path d="M0,0 L1,0 L1,1 L2,1 L2,2 L3,2 L3,3 L4,3 L4,4 L5,4 L5,5 L6,5 L6,6 L8,6 L8,8 L5,8 L5,6 L4,6 L4,5 L2,5 L2,4 L0,4 Z " fill="#8C5057" transform="translate(37,149)"/>
</svg>
